<svg xmlns="http://www.w3.org/2000/svg" width="1180" height="440" viewBox="0 0 1180 440">
<rect width="1180" height="440" fill="#ffffff"/>
<text x="28" y="38" font-family="Arial, sans-serif" font-size="22" font-weight="700" fill="#1f2937">SPY 5-Minute Intraday Mean Return</text>
<text x="28" y="62" font-family="Arial, sans-serif" font-size="13" fill="#6b7280">Average basis points by 5-minute ending time, Alpaca SIP 2025-06-03 to 2026-06-03.</text>
<line x1="66" y1="376.0" x2="1152" y2="376.0" stroke="#e5e7eb"/>
<text x="12" y="380.0" font-family="Arial, sans-serif" font-size="11" fill="#6b7280">-1.53</text>
<line x1="66" y1="303.5" x2="1152" y2="303.5" stroke="#e5e7eb"/>
<text x="12" y="307.5" font-family="Arial, sans-serif" font-size="11" fill="#6b7280">-0.76</text>
<line x1="66" y1="231.0" x2="1152" y2="231.0" stroke="#9ca3af"/>
<line x1="66" y1="158.5" x2="1152" y2="158.5" stroke="#e5e7eb"/>
<text x="12" y="162.5" font-family="Arial, sans-serif" font-size="11" fill="#6b7280">0.76</text>
<line x1="66" y1="86.0" x2="1152" y2="86.0" stroke="#e5e7eb"/>
<text x="12" y="90.0" font-family="Arial, sans-serif" font-size="11" fill="#6b7280">1.53</text>
<text x="12" y="74" font-family="Arial, sans-serif" font-size="11" fill="#6b7280">bps</text>
<rect x="67.9" y="200.1" width="10.0" height="30.9" fill="#117a52" opacity="0.86"/>
<text x="73.0" y="412" font-family="Arial, sans-serif" font-size="10" text-anchor="middle" fill="#6b7280" transform="rotate(-45 73.0,412)">09:35</text>
<rect x="81.9" y="199.3" width="10.0" height="31.7" fill="#117a52" opacity="0.86"/>
<rect x="95.8" y="231.0" width="10.0" height="19.6" fill="#b42318" opacity="0.86"/>
<rect x="109.7" y="223.7" width="10.0" height="7.3" fill="#117a52" opacity="0.86"/>
<rect x="123.6" y="130.8" width="10.0" height="100.2" fill="#117a52" opacity="0.86"/>
<rect x="137.6" y="224.9" width="10.0" height="6.1" fill="#117a52" opacity="0.86"/>
<text x="142.6" y="412" font-family="Arial, sans-serif" font-size="10" text-anchor="middle" fill="#6b7280" transform="rotate(-45 142.6,412)">10:00</text>
<rect x="151.5" y="224.3" width="10.0" height="6.7" fill="#117a52" opacity="0.86"/>
<rect x="165.4" y="200.2" width="10.0" height="30.8" fill="#117a52" opacity="0.86"/>
<rect x="179.3" y="202.0" width="10.0" height="29.0" fill="#117a52" opacity="0.86"/>
<rect x="193.3" y="133.9" width="10.0" height="97.1" fill="#117a52" opacity="0.86"/>
<rect x="207.2" y="231.0" width="10.0" height="86.2" fill="#b42318" opacity="0.86"/>
<text x="212.2" y="412" font-family="Arial, sans-serif" font-size="10" text-anchor="middle" fill="#6b7280" transform="rotate(-45 212.2,412)">10:25</text>
<rect x="221.1" y="216.2" width="10.0" height="14.8" fill="#117a52" opacity="0.86"/>
<rect x="235.0" y="224.2" width="10.0" height="6.8" fill="#117a52" opacity="0.86"/>
<rect x="248.9" y="184.6" width="10.0" height="46.4" fill="#117a52" opacity="0.86"/>
<rect x="262.9" y="221.6" width="10.0" height="9.4" fill="#117a52" opacity="0.86"/>
<rect x="276.8" y="231.0" width="10.0" height="145.0" fill="#2563eb" opacity="0.86"/>
<text x="281.8" y="412" font-family="Arial, sans-serif" font-size="10" text-anchor="middle" fill="#6b7280" transform="rotate(-45 281.8,412)">10:50</text>
<text x="281.8" y="224.0" font-family="Arial, sans-serif" font-size="11" text-anchor="middle" fill="#2563eb" font-weight="700">-1.53</text>
<rect x="290.7" y="165.9" width="10.0" height="65.1" fill="#117a52" opacity="0.86"/>
<rect x="304.6" y="210.0" width="10.0" height="21.0" fill="#117a52" opacity="0.86"/>
<rect x="318.6" y="231.0" width="10.0" height="41.7" fill="#b42318" opacity="0.86"/>
<rect x="332.5" y="231.0" width="10.0" height="2.9" fill="#b42318" opacity="0.86"/>
<rect x="346.4" y="190.0" width="10.0" height="41.0" fill="#117a52" opacity="0.86"/>
<text x="351.4" y="412" font-family="Arial, sans-serif" font-size="10" text-anchor="middle" fill="#6b7280" transform="rotate(-45 351.4,412)">11:15</text>
<rect x="360.3" y="231.0" width="10.0" height="41.3" fill="#b42318" opacity="0.86"/>
<rect x="374.3" y="230.7" width="10.0" height="1.0" fill="#117a52" opacity="0.86"/>
<rect x="388.2" y="231.0" width="10.0" height="15.2" fill="#b42318" opacity="0.86"/>
<rect x="402.1" y="231.0" width="10.0" height="1.0" fill="#b42318" opacity="0.86"/>
<rect x="416.0" y="229.2" width="10.0" height="1.8" fill="#117a52" opacity="0.86"/>
<text x="421.0" y="412" font-family="Arial, sans-serif" font-size="10" text-anchor="middle" fill="#6b7280" transform="rotate(-45 421.0,412)">11:40</text>
<rect x="429.9" y="176.2" width="10.0" height="54.8" fill="#117a52" opacity="0.86"/>
<rect x="443.9" y="196.7" width="10.0" height="34.3" fill="#117a52" opacity="0.86"/>
<rect x="457.8" y="187.1" width="10.0" height="43.9" fill="#117a52" opacity="0.86"/>
<rect x="471.7" y="231.0" width="10.0" height="44.7" fill="#b42318" opacity="0.86"/>
<rect x="485.6" y="193.8" width="10.0" height="37.2" fill="#117a52" opacity="0.86"/>
<text x="490.7" y="412" font-family="Arial, sans-serif" font-size="10" text-anchor="middle" fill="#6b7280" transform="rotate(-45 490.7,412)">12:05</text>
<rect x="499.6" y="231.0" width="10.0" height="61.8" fill="#b42318" opacity="0.86"/>
<rect x="513.5" y="189.3" width="10.0" height="41.7" fill="#117a52" opacity="0.86"/>
<rect x="527.4" y="231.0" width="10.0" height="3.8" fill="#b42318" opacity="0.86"/>
<rect x="541.3" y="178.8" width="10.0" height="52.2" fill="#117a52" opacity="0.86"/>
<rect x="555.3" y="231.0" width="10.0" height="56.2" fill="#b42318" opacity="0.86"/>
<text x="560.3" y="412" font-family="Arial, sans-serif" font-size="10" text-anchor="middle" fill="#6b7280" transform="rotate(-45 560.3,412)">12:30</text>
<rect x="569.2" y="231.0" width="10.0" height="10.6" fill="#b42318" opacity="0.86"/>
<rect x="583.1" y="222.0" width="10.0" height="9.0" fill="#117a52" opacity="0.86"/>
<rect x="597.0" y="231.0" width="10.0" height="6.2" fill="#b42318" opacity="0.86"/>
<rect x="610.9" y="231.0" width="10.0" height="16.7" fill="#b42318" opacity="0.86"/>
<rect x="624.9" y="231.0" width="10.0" height="1.0" fill="#b42318" opacity="0.86"/>
<text x="629.9" y="412" font-family="Arial, sans-serif" font-size="10" text-anchor="middle" fill="#6b7280" transform="rotate(-45 629.9,412)">12:55</text>
<rect x="638.8" y="231.0" width="10.0" height="30.3" fill="#b42318" opacity="0.86"/>
<rect x="652.7" y="231.0" width="10.0" height="44.5" fill="#b42318" opacity="0.86"/>
<rect x="666.6" y="188.8" width="10.0" height="42.2" fill="#117a52" opacity="0.86"/>
<rect x="680.6" y="231.0" width="10.0" height="26.8" fill="#b42318" opacity="0.86"/>
<rect x="694.5" y="231.0" width="10.0" height="44.5" fill="#b42318" opacity="0.86"/>
<text x="699.5" y="412" font-family="Arial, sans-serif" font-size="10" text-anchor="middle" fill="#6b7280" transform="rotate(-45 699.5,412)">13:20</text>
<rect x="708.4" y="164.9" width="10.0" height="66.1" fill="#117a52" opacity="0.86"/>
<rect x="722.3" y="160.4" width="10.0" height="70.6" fill="#2563eb" opacity="0.86"/>
<text x="727.3" y="412" font-family="Arial, sans-serif" font-size="10" text-anchor="middle" fill="#6b7280" transform="rotate(-45 727.3,412)">13:30</text>
<text x="727.3" y="153.4" font-family="Arial, sans-serif" font-size="11" text-anchor="middle" fill="#2563eb" font-weight="700">0.74</text>
<rect x="736.3" y="197.5" width="10.0" height="33.5" fill="#117a52" opacity="0.86"/>
<rect x="750.2" y="207.6" width="10.0" height="23.4" fill="#117a52" opacity="0.86"/>
<rect x="764.1" y="231.0" width="10.0" height="31.9" fill="#b42318" opacity="0.86"/>
<text x="769.1" y="412" font-family="Arial, sans-serif" font-size="10" text-anchor="middle" fill="#6b7280" transform="rotate(-45 769.1,412)">13:45</text>
<rect x="778.0" y="230.9" width="10.0" height="1.0" fill="#117a52" opacity="0.86"/>
<rect x="791.9" y="228.3" width="10.0" height="2.7" fill="#117a52" opacity="0.86"/>
<rect x="805.9" y="190.2" width="10.0" height="40.8" fill="#117a52" opacity="0.86"/>
<rect x="819.8" y="231.0" width="10.0" height="36.8" fill="#b42318" opacity="0.86"/>
<rect x="833.7" y="231.0" width="10.0" height="32.2" fill="#b42318" opacity="0.86"/>
<text x="838.7" y="412" font-family="Arial, sans-serif" font-size="10" text-anchor="middle" fill="#6b7280" transform="rotate(-45 838.7,412)">14:10</text>
<rect x="847.6" y="231.0" width="10.0" height="4.8" fill="#b42318" opacity="0.86"/>
<rect x="861.6" y="202.5" width="10.0" height="28.5" fill="#117a52" opacity="0.86"/>
<rect x="875.5" y="215.7" width="10.0" height="15.3" fill="#117a52" opacity="0.86"/>
<rect x="889.4" y="215.8" width="10.0" height="15.2" fill="#117a52" opacity="0.86"/>
<rect x="903.3" y="190.9" width="10.0" height="40.1" fill="#117a52" opacity="0.86"/>
<text x="908.3" y="412" font-family="Arial, sans-serif" font-size="10" text-anchor="middle" fill="#6b7280" transform="rotate(-45 908.3,412)">14:35</text>
<rect x="917.3" y="231.0" width="10.0" height="57.0" fill="#b42318" opacity="0.86"/>
<rect x="931.2" y="231.0" width="10.0" height="35.6" fill="#b42318" opacity="0.86"/>
<rect x="945.1" y="218.8" width="10.0" height="12.2" fill="#117a52" opacity="0.86"/>
<rect x="959.0" y="231.0" width="10.0" height="2.2" fill="#b42318" opacity="0.86"/>
<rect x="972.9" y="218.5" width="10.0" height="12.5" fill="#117a52" opacity="0.86"/>
<text x="978.0" y="412" font-family="Arial, sans-serif" font-size="10" text-anchor="middle" fill="#6b7280" transform="rotate(-45 978.0,412)">15:00</text>
<rect x="986.9" y="187.7" width="10.0" height="43.3" fill="#117a52" opacity="0.86"/>
<rect x="1000.8" y="181.0" width="10.0" height="50.0" fill="#117a52" opacity="0.86"/>
<rect x="1014.7" y="231.0" width="10.0" height="46.8" fill="#b42318" opacity="0.86"/>
<rect x="1028.6" y="202.4" width="10.0" height="28.6" fill="#117a52" opacity="0.86"/>
<rect x="1042.6" y="231.0" width="10.0" height="73.7" fill="#2563eb" opacity="0.86"/>
<text x="1047.6" y="412" font-family="Arial, sans-serif" font-size="10" text-anchor="middle" fill="#6b7280" transform="rotate(-45 1047.6,412)">15:25</text>
<text x="1047.6" y="224.0" font-family="Arial, sans-serif" font-size="11" text-anchor="middle" fill="#2563eb" font-weight="700">-0.78</text>
<rect x="1056.5" y="231.0" width="10.0" height="29.8" fill="#b42318" opacity="0.86"/>
<rect x="1070.4" y="231.0" width="10.0" height="25.1" fill="#b42318" opacity="0.86"/>
<rect x="1084.3" y="169.4" width="10.0" height="61.6" fill="#117a52" opacity="0.86"/>
<rect x="1098.3" y="231.0" width="10.0" height="28.4" fill="#b42318" opacity="0.86"/>
<rect x="1112.2" y="194.8" width="10.0" height="36.2" fill="#117a52" opacity="0.86"/>
<text x="1117.2" y="412" font-family="Arial, sans-serif" font-size="10" text-anchor="middle" fill="#6b7280" transform="rotate(-45 1117.2,412)">15:50</text>
<rect x="1126.1" y="231.0" width="10.0" height="27.8" fill="#b42318" opacity="0.86"/>
<rect x="1140.0" y="231.0" width="10.0" height="14.6" fill="#b42318" opacity="0.86"/>
</svg>